<?xml version="1.0" encoding="UTF-8"?> <svg xmlns="http://www.w3.org/2000/svg" width="596.12" height="324.81" viewBox="0 0 596.12 324.81"><g id="Layer_2" data-name="Layer 2"><g id="Layer_1-2" data-name="Layer 1"><g><circle cx="162.42" cy="162.41" r="162.41" fill="#dbdada"></circle><circle cx="162.42" cy="162.41" r="162.41" fill="#dbdada"></circle></g><path d="M37.08,59.1A162.41,162.41,0,0,0,264.12,289Z" fill="#ccc"></path><path d="M37.08,59.1A162.41,162.41,0,0,0,264.12,289Z" fill="#ccc"></path><g><path d="M191.14,131.48H202.4v11.26H191.14Zm0,18H202.4v54.61H191.14Z" fill="#fff"></path><g><path d="M112,205.63a19.2,19.2,0,0,1-12.4-4.49,19.18,19.18,0,0,1-12.4,4.49H50A19.55,19.55,0,0,1,30.46,186.1V128.21H44.71V186.1A5.28,5.28,0,0,0,50,191.37H87.2a5.27,5.27,0,0,0,5.27-5.27V128.21h14.26V186.1a5.28,5.28,0,0,0,5.27,5.27h37.21a5.28,5.28,0,0,0,5.28-5.27V128.21h14.25V186.1a19.55,19.55,0,0,1-19.53,19.53Z" fill="#6d0189"></path><path d="M167.24,129.71V186.1a18,18,0,0,1-18,18H112a17.68,17.68,0,0,1-12.4-5,17.66,17.66,0,0,1-12.4,5H50a18,18,0,0,1-18-18V129.71H43.21V186.1A6.76,6.76,0,0,0,50,192.87H87.2A6.76,6.76,0,0,0,94,186.1V129.71h11.26V186.1a6.76,6.76,0,0,0,6.77,6.77h37.21A6.76,6.76,0,0,0,156,186.1V129.71h11.25m3-3H153V186.1a3.78,3.78,0,0,1-3.78,3.77H112a3.77,3.77,0,0,1-3.77-3.77V126.71H91V186.1a3.77,3.77,0,0,1-3.77,3.77H50a3.78,3.78,0,0,1-3.78-3.77V126.71H29V186.1a21,21,0,0,0,21,21H87.2a20.69,20.69,0,0,0,12.4-4.08,20.71,20.71,0,0,0,12.4,4.08h37.21a21,21,0,0,0,21-21V126.71Z" fill="#fff"></path></g><path d="M266.37,140.87H226.66V129.71h90.57v11.16h-39.6v63.26H266.37Z" fill="#fff"></path><g><path d="M421.19,205.63a19.21,19.21,0,0,1-12.41-4.49,19.16,19.16,0,0,1-12.4,4.49H359.17a19.55,19.55,0,0,1-19.53-19.53V128.21H353.9V186.1a5.27,5.27,0,0,0,5.27,5.27h37.21a5.28,5.28,0,0,0,5.28-5.27V128.21h14.25V186.1a5.28,5.28,0,0,0,5.28,5.27H458.4a5.28,5.28,0,0,0,5.27-5.27V128.21h14.26V186.1a19.55,19.55,0,0,1-19.53,19.53Z" fill="#6d0189"></path><path d="M476.43,129.71V186.1a18,18,0,0,1-18,18H421.19a17.7,17.7,0,0,1-12.41-5,17.66,17.66,0,0,1-12.4,5H359.17a18,18,0,0,1-18-18V129.71H352.4V186.1a6.76,6.76,0,0,0,6.77,6.77h37.21a6.76,6.76,0,0,0,6.78-6.77V129.71h11.25V186.1a6.76,6.76,0,0,0,6.78,6.77H458.4a6.76,6.76,0,0,0,6.77-6.77V129.71h11.26m3-3H462.17V186.1a3.77,3.77,0,0,1-3.77,3.77H421.19a3.78,3.78,0,0,1-3.78-3.77V126.71H400.16V186.1a3.78,3.78,0,0,1-3.78,3.77H359.17a3.77,3.77,0,0,1-3.77-3.77V126.71H338.14V186.1a21.06,21.06,0,0,0,21,21h37.21a20.67,20.67,0,0,0,12.4-4.08,20.72,20.72,0,0,0,12.41,4.08H458.4a21.06,21.06,0,0,0,21-21V126.71Z" fill="#fff"></path></g><g><path d="M579.09,205.63V174.05H513.92v31.58H499.67V147.74a19.55,19.55,0,0,1,19.52-19.53h54.62a19.5,19.5,0,0,1,19.43,19.53v57.89Zm0-45.84v-12a5.34,5.34,0,0,0-5.28-5.38H519.19a5.34,5.34,0,0,0-5.27,5.38v12Z" fill="#6d0189"></path><path d="M573.81,129.71a18,18,0,0,1,17.93,18v56.39H580.59V172.55H512.42v31.58H501.17V147.74a18,18,0,0,1,18-18h54.62m-61.39,31.58h68.17V147.74a6.86,6.86,0,0,0-6.78-6.88H519.19a6.85,6.85,0,0,0-6.77,6.88v13.55m61.39-34.58H519.19a21.05,21.05,0,0,0-21,21v59.39h17.25V175.55h62.17v31.58h17.15V147.74a21,21,0,0,0-20.93-21Zm-58.39,31.58V147.74a3.83,3.83,0,0,1,3.77-3.88h54.62a3.84,3.84,0,0,1,3.78,3.88v10.55Z" fill="#fff"></path></g></g><g><path d="M440.8,241H430.16v29.35h-5.89V241H413.73v-4.78H440.8Z"></path><path d="M465.22,255.14h-14v10.5h16.39v4.74H445.27V236.25h22.15V241H451.2v9.42h14Z"></path><path d="M498.45,259.27a12.28,12.28,0,0,1-4,8.52q-3.51,3.06-9.35,3.06a13.29,13.29,0,0,1-7.18-1.94,12.76,12.76,0,0,1-4.8-5.49,19.86,19.86,0,0,1-1.75-8.28V252a20,20,0,0,1,1.71-8.5,12.84,12.84,0,0,1,4.91-5.68,13.76,13.76,0,0,1,7.39-2,13.2,13.2,0,0,1,9.1,3.06,12.79,12.79,0,0,1,4,8.66h-5.9q-.42-3.67-2.15-5.31a7.11,7.11,0,0,0-5-1.63,6.93,6.93,0,0,0-5.94,2.83c-1.38,1.88-2.09,4.65-2.12,8.29v3c0,3.69.66,6.51,2,8.44a6.57,6.57,0,0,0,5.8,2.91,7.64,7.64,0,0,0,5.25-1.57c1.17-1,1.92-2.79,2.23-5.22Z"></path><path d="M530.84,270.38h-5.9V255.24H509.68v15.14h-5.93V236.25h5.93v14.2h15.26v-14.2h5.9Z"></path><path d="M559,235.5h-3.86v38H559V278h-9.56V231.05H559Z"></path><path d="M575.56,251.6h8.91v5.21h-8.91V267H570V256.81h-8.95V251.6H570v-9.49h5.53Z"></path><path d="M586.51,231.05h9.61V278h-9.61v-4.43h3.91v-38h-3.91Z"></path></g></g></g></svg> 